<svg xmlns="http://www.w3.org/2000/svg" width="392" height="434" viewBox="0 0 392 434" role="img" aria-label="备用链路2 · git.yylx.win"><rect width="100%" height="100%" fill="#fff"/><text x="196" y="27" text-anchor="middle" font-family="-apple-system,BlinkMacSystemFont,'Segoe UI','Noto Sans CJK SC','Microsoft YaHei',sans-serif" font-size="18" font-weight="700" fill="#111">备用链路2 · git.yylx.win</text><path d="M32 74h8v8h-8zM40 74h8v8h-8zM48 74h8v8h-8zM56 74h8v8h-8zM64 74h8v8h-8zM72 74h8v8h-8zM80 74h8v8h-8zM96 74h8v8h-8zM104 74h8v8h-8zM112 74h8v8h-8zM144 74h8v8h-8zM152 74h8v8h-8zM160 74h8v8h-8zM168 74h8v8h-8zM176 74h8v8h-8zM208 74h8v8h-8zM240 74h8v8h-8zM256 74h8v8h-8zM272 74h8v8h-8zM304 74h8v8h-8zM312 74h8v8h-8zM320 74h8v8h-8zM328 74h8v8h-8zM336 74h8v8h-8zM344 74h8v8h-8zM352 74h8v8h-8zM32 82h8v8h-8zM80 82h8v8h-8zM96 82h8v8h-8zM104 82h8v8h-8zM120 82h8v8h-8zM176 82h8v8h-8zM184 82h8v8h-8zM192 82h8v8h-8zM208 82h8v8h-8zM232 82h8v8h-8zM240 82h8v8h-8zM280 82h8v8h-8zM304 82h8v8h-8zM352 82h8v8h-8zM32 90h8v8h-8zM48 90h8v8h-8zM56 90h8v8h-8zM64 90h8v8h-8zM80 90h8v8h-8zM96 90h8v8h-8zM112 90h8v8h-8zM144 90h8v8h-8zM160 90h8v8h-8zM192 90h8v8h-8zM200 90h8v8h-8zM216 90h8v8h-8zM224 90h8v8h-8zM232 90h8v8h-8zM240 90h8v8h-8zM256 90h8v8h-8zM288 90h8v8h-8zM304 90h8v8h-8zM320 90h8v8h-8zM328 90h8v8h-8zM336 90h8v8h-8zM352 90h8v8h-8zM32 98h8v8h-8zM48 98h8v8h-8zM56 98h8v8h-8zM64 98h8v8h-8zM80 98h8v8h-8zM112 98h8v8h-8zM144 98h8v8h-8zM152 98h8v8h-8zM176 98h8v8h-8zM184 98h8v8h-8zM192 98h8v8h-8zM200 98h8v8h-8zM224 98h8v8h-8zM232 98h8v8h-8zM248 98h8v8h-8zM264 98h8v8h-8zM304 98h8v8h-8zM320 98h8v8h-8zM328 98h8v8h-8zM336 98h8v8h-8zM352 98h8v8h-8zM32 106h8v8h-8zM48 106h8v8h-8zM56 106h8v8h-8zM64 106h8v8h-8zM80 106h8v8h-8zM96 106h8v8h-8zM120 106h8v8h-8zM144 106h8v8h-8zM152 106h8v8h-8zM168 106h8v8h-8zM184 106h8v8h-8zM192 106h8v8h-8zM232 106h8v8h-8zM240 106h8v8h-8zM256 106h8v8h-8zM264 106h8v8h-8zM272 106h8v8h-8zM280 106h8v8h-8zM304 106h8v8h-8zM320 106h8v8h-8zM328 106h8v8h-8zM336 106h8v8h-8zM352 106h8v8h-8zM32 114h8v8h-8zM80 114h8v8h-8zM104 114h8v8h-8zM112 114h8v8h-8zM120 114h8v8h-8zM128 114h8v8h-8zM136 114h8v8h-8zM152 114h8v8h-8zM168 114h8v8h-8zM208 114h8v8h-8zM216 114h8v8h-8zM288 114h8v8h-8zM304 114h8v8h-8zM352 114h8v8h-8zM32 122h8v8h-8zM40 122h8v8h-8zM48 122h8v8h-8zM56 122h8v8h-8zM64 122h8v8h-8zM72 122h8v8h-8zM80 122h8v8h-8zM96 122h8v8h-8zM112 122h8v8h-8zM128 122h8v8h-8zM144 122h8v8h-8zM160 122h8v8h-8zM176 122h8v8h-8zM192 122h8v8h-8zM208 122h8v8h-8zM224 122h8v8h-8zM240 122h8v8h-8zM256 122h8v8h-8zM272 122h8v8h-8zM288 122h8v8h-8zM304 122h8v8h-8zM312 122h8v8h-8zM320 122h8v8h-8zM328 122h8v8h-8zM336 122h8v8h-8zM344 122h8v8h-8zM352 122h8v8h-8zM104 130h8v8h-8zM112 130h8v8h-8zM128 130h8v8h-8zM144 130h8v8h-8zM160 130h8v8h-8zM176 130h8v8h-8zM184 130h8v8h-8zM208 130h8v8h-8zM216 130h8v8h-8zM232 130h8v8h-8zM256 130h8v8h-8zM280 130h8v8h-8zM288 130h8v8h-8zM32 138h8v8h-8zM56 138h8v8h-8zM64 138h8v8h-8zM72 138h8v8h-8zM80 138h8v8h-8zM88 138h8v8h-8zM96 138h8v8h-8zM128 138h8v8h-8zM136 138h8v8h-8zM144 138h8v8h-8zM160 138h8v8h-8zM168 138h8v8h-8zM184 138h8v8h-8zM192 138h8v8h-8zM216 138h8v8h-8zM224 138h8v8h-8zM240 138h8v8h-8zM248 138h8v8h-8zM264 138h8v8h-8zM296 138h8v8h-8zM320 138h8v8h-8zM336 138h8v8h-8zM344 138h8v8h-8zM352 138h8v8h-8zM32 146h8v8h-8zM48 146h8v8h-8zM88 146h8v8h-8zM112 146h8v8h-8zM120 146h8v8h-8zM128 146h8v8h-8zM144 146h8v8h-8zM152 146h8v8h-8zM160 146h8v8h-8zM168 146h8v8h-8zM184 146h8v8h-8zM200 146h8v8h-8zM208 146h8v8h-8zM216 146h8v8h-8zM240 146h8v8h-8zM248 146h8v8h-8zM272 146h8v8h-8zM280 146h8v8h-8zM312 146h8v8h-8zM320 146h8v8h-8zM32 154h8v8h-8zM40 154h8v8h-8zM56 154h8v8h-8zM64 154h8v8h-8zM72 154h8v8h-8zM80 154h8v8h-8zM96 154h8v8h-8zM104 154h8v8h-8zM120 154h8v8h-8zM128 154h8v8h-8zM136 154h8v8h-8zM144 154h8v8h-8zM152 154h8v8h-8zM192 154h8v8h-8zM208 154h8v8h-8zM216 154h8v8h-8zM232 154h8v8h-8zM240 154h8v8h-8zM248 154h8v8h-8zM256 154h8v8h-8zM264 154h8v8h-8zM304 154h8v8h-8zM312 154h8v8h-8zM320 154h8v8h-8zM336 154h8v8h-8zM32 162h8v8h-8zM48 162h8v8h-8zM56 162h8v8h-8zM72 162h8v8h-8zM112 162h8v8h-8zM144 162h8v8h-8zM152 162h8v8h-8zM160 162h8v8h-8zM168 162h8v8h-8zM176 162h8v8h-8zM192 162h8v8h-8zM208 162h8v8h-8zM240 162h8v8h-8zM256 162h8v8h-8zM264 162h8v8h-8zM272 162h8v8h-8zM280 162h8v8h-8zM288 162h8v8h-8zM320 162h8v8h-8zM328 162h8v8h-8zM344 162h8v8h-8zM40 170h8v8h-8zM48 170h8v8h-8zM56 170h8v8h-8zM80 170h8v8h-8zM88 170h8v8h-8zM96 170h8v8h-8zM112 170h8v8h-8zM128 170h8v8h-8zM136 170h8v8h-8zM152 170h8v8h-8zM160 170h8v8h-8zM184 170h8v8h-8zM192 170h8v8h-8zM216 170h8v8h-8zM224 170h8v8h-8zM256 170h8v8h-8zM288 170h8v8h-8zM296 170h8v8h-8zM304 170h8v8h-8zM64 178h8v8h-8zM96 178h8v8h-8zM120 178h8v8h-8zM136 178h8v8h-8zM176 178h8v8h-8zM184 178h8v8h-8zM200 178h8v8h-8zM208 178h8v8h-8zM216 178h8v8h-8zM240 178h8v8h-8zM248 178h8v8h-8zM256 178h8v8h-8zM272 178h8v8h-8zM288 178h8v8h-8zM304 178h8v8h-8zM312 178h8v8h-8zM320 178h8v8h-8zM352 178h8v8h-8zM32 186h8v8h-8zM64 186h8v8h-8zM72 186h8v8h-8zM80 186h8v8h-8zM88 186h8v8h-8zM96 186h8v8h-8zM104 186h8v8h-8zM112 186h8v8h-8zM120 186h8v8h-8zM144 186h8v8h-8zM168 186h8v8h-8zM200 186h8v8h-8zM208 186h8v8h-8zM232 186h8v8h-8zM240 186h8v8h-8zM248 186h8v8h-8zM256 186h8v8h-8zM272 186h8v8h-8zM280 186h8v8h-8zM296 186h8v8h-8zM304 186h8v8h-8zM312 186h8v8h-8zM320 186h8v8h-8zM336 186h8v8h-8zM344 186h8v8h-8zM352 186h8v8h-8zM32 194h8v8h-8zM72 194h8v8h-8zM88 194h8v8h-8zM96 194h8v8h-8zM112 194h8v8h-8zM120 194h8v8h-8zM128 194h8v8h-8zM136 194h8v8h-8zM144 194h8v8h-8zM152 194h8v8h-8zM176 194h8v8h-8zM184 194h8v8h-8zM208 194h8v8h-8zM224 194h8v8h-8zM248 194h8v8h-8zM280 194h8v8h-8zM288 194h8v8h-8zM296 194h8v8h-8zM320 194h8v8h-8zM336 194h8v8h-8zM344 194h8v8h-8zM352 194h8v8h-8zM40 202h8v8h-8zM56 202h8v8h-8zM80 202h8v8h-8zM104 202h8v8h-8zM120 202h8v8h-8zM128 202h8v8h-8zM160 202h8v8h-8zM184 202h8v8h-8zM192 202h8v8h-8zM216 202h8v8h-8zM232 202h8v8h-8zM248 202h8v8h-8zM280 202h8v8h-8zM288 202h8v8h-8zM296 202h8v8h-8zM352 202h8v8h-8zM64 210h8v8h-8zM120 210h8v8h-8zM136 210h8v8h-8zM144 210h8v8h-8zM152 210h8v8h-8zM176 210h8v8h-8zM184 210h8v8h-8zM192 210h8v8h-8zM200 210h8v8h-8zM208 210h8v8h-8zM240 210h8v8h-8zM264 210h8v8h-8zM272 210h8v8h-8zM280 210h8v8h-8zM288 210h8v8h-8zM296 210h8v8h-8zM320 210h8v8h-8zM328 210h8v8h-8zM336 210h8v8h-8zM32 218h8v8h-8zM72 218h8v8h-8zM80 218h8v8h-8zM144 218h8v8h-8zM152 218h8v8h-8zM184 218h8v8h-8zM200 218h8v8h-8zM216 218h8v8h-8zM248 218h8v8h-8zM256 218h8v8h-8zM272 218h8v8h-8zM280 218h8v8h-8zM304 218h8v8h-8zM312 218h8v8h-8zM320 218h8v8h-8zM344 218h8v8h-8zM352 218h8v8h-8zM40 226h8v8h-8zM56 226h8v8h-8zM72 226h8v8h-8zM88 226h8v8h-8zM96 226h8v8h-8zM104 226h8v8h-8zM112 226h8v8h-8zM120 226h8v8h-8zM128 226h8v8h-8zM144 226h8v8h-8zM152 226h8v8h-8zM160 226h8v8h-8zM168 226h8v8h-8zM176 226h8v8h-8zM224 226h8v8h-8zM232 226h8v8h-8zM248 226h8v8h-8zM280 226h8v8h-8zM288 226h8v8h-8zM296 226h8v8h-8zM304 226h8v8h-8zM320 226h8v8h-8zM336 226h8v8h-8zM352 226h8v8h-8zM32 234h8v8h-8zM80 234h8v8h-8zM88 234h8v8h-8zM96 234h8v8h-8zM136 234h8v8h-8zM192 234h8v8h-8zM200 234h8v8h-8zM208 234h8v8h-8zM224 234h8v8h-8zM264 234h8v8h-8zM296 234h8v8h-8zM304 234h8v8h-8zM336 234h8v8h-8zM344 234h8v8h-8zM32 242h8v8h-8zM48 242h8v8h-8zM56 242h8v8h-8zM64 242h8v8h-8zM88 242h8v8h-8zM96 242h8v8h-8zM112 242h8v8h-8zM120 242h8v8h-8zM128 242h8v8h-8zM136 242h8v8h-8zM144 242h8v8h-8zM152 242h8v8h-8zM160 242h8v8h-8zM176 242h8v8h-8zM184 242h8v8h-8zM200 242h8v8h-8zM208 242h8v8h-8zM216 242h8v8h-8zM232 242h8v8h-8zM240 242h8v8h-8zM248 242h8v8h-8zM264 242h8v8h-8zM272 242h8v8h-8zM280 242h8v8h-8zM312 242h8v8h-8zM320 242h8v8h-8zM328 242h8v8h-8zM56 250h8v8h-8zM64 250h8v8h-8zM72 250h8v8h-8zM80 250h8v8h-8zM88 250h8v8h-8zM96 250h8v8h-8zM112 250h8v8h-8zM128 250h8v8h-8zM168 250h8v8h-8zM176 250h8v8h-8zM192 250h8v8h-8zM208 250h8v8h-8zM216 250h8v8h-8zM248 250h8v8h-8zM264 250h8v8h-8zM272 250h8v8h-8zM304 250h8v8h-8zM320 250h8v8h-8zM328 250h8v8h-8zM336 250h8v8h-8zM48 258h8v8h-8zM56 258h8v8h-8zM96 258h8v8h-8zM104 258h8v8h-8zM112 258h8v8h-8zM120 258h8v8h-8zM128 258h8v8h-8zM136 258h8v8h-8zM152 258h8v8h-8zM160 258h8v8h-8zM168 258h8v8h-8zM176 258h8v8h-8zM184 258h8v8h-8zM192 258h8v8h-8zM208 258h8v8h-8zM224 258h8v8h-8zM248 258h8v8h-8zM256 258h8v8h-8zM264 258h8v8h-8zM280 258h8v8h-8zM288 258h8v8h-8zM312 258h8v8h-8zM328 258h8v8h-8zM352 258h8v8h-8zM32 266h8v8h-8zM40 266h8v8h-8zM56 266h8v8h-8zM72 266h8v8h-8zM80 266h8v8h-8zM88 266h8v8h-8zM112 266h8v8h-8zM128 266h8v8h-8zM136 266h8v8h-8zM144 266h8v8h-8zM152 266h8v8h-8zM160 266h8v8h-8zM208 266h8v8h-8zM216 266h8v8h-8zM248 266h8v8h-8zM280 266h8v8h-8zM288 266h8v8h-8zM304 266h8v8h-8zM312 266h8v8h-8zM328 266h8v8h-8zM352 266h8v8h-8zM40 274h8v8h-8zM48 274h8v8h-8zM56 274h8v8h-8zM64 274h8v8h-8zM88 274h8v8h-8zM96 274h8v8h-8zM104 274h8v8h-8zM112 274h8v8h-8zM128 274h8v8h-8zM144 274h8v8h-8zM152 274h8v8h-8zM216 274h8v8h-8zM232 274h8v8h-8zM248 274h8v8h-8zM256 274h8v8h-8zM264 274h8v8h-8zM288 274h8v8h-8zM304 274h8v8h-8zM312 274h8v8h-8zM320 274h8v8h-8zM336 274h8v8h-8zM352 274h8v8h-8zM32 282h8v8h-8zM48 282h8v8h-8zM56 282h8v8h-8zM64 282h8v8h-8zM72 282h8v8h-8zM80 282h8v8h-8zM88 282h8v8h-8zM96 282h8v8h-8zM128 282h8v8h-8zM136 282h8v8h-8zM144 282h8v8h-8zM160 282h8v8h-8zM168 282h8v8h-8zM176 282h8v8h-8zM184 282h8v8h-8zM200 282h8v8h-8zM224 282h8v8h-8zM232 282h8v8h-8zM240 282h8v8h-8zM248 282h8v8h-8zM256 282h8v8h-8zM272 282h8v8h-8zM280 282h8v8h-8zM288 282h8v8h-8zM312 282h8v8h-8zM320 282h8v8h-8zM328 282h8v8h-8zM344 282h8v8h-8zM352 282h8v8h-8zM48 290h8v8h-8zM72 290h8v8h-8zM88 290h8v8h-8zM112 290h8v8h-8zM128 290h8v8h-8zM152 290h8v8h-8zM160 290h8v8h-8zM192 290h8v8h-8zM208 290h8v8h-8zM216 290h8v8h-8zM248 290h8v8h-8zM272 290h8v8h-8zM280 290h8v8h-8zM296 290h8v8h-8zM328 290h8v8h-8zM336 290h8v8h-8zM344 290h8v8h-8zM56 298h8v8h-8zM72 298h8v8h-8zM80 298h8v8h-8zM88 298h8v8h-8zM96 298h8v8h-8zM104 298h8v8h-8zM120 298h8v8h-8zM144 298h8v8h-8zM184 298h8v8h-8zM208 298h8v8h-8zM224 298h8v8h-8zM232 298h8v8h-8zM280 298h8v8h-8zM288 298h8v8h-8zM312 298h8v8h-8zM328 298h8v8h-8zM32 306h8v8h-8zM40 306h8v8h-8zM48 306h8v8h-8zM88 306h8v8h-8zM104 306h8v8h-8zM112 306h8v8h-8zM120 306h8v8h-8zM144 306h8v8h-8zM176 306h8v8h-8zM200 306h8v8h-8zM208 306h8v8h-8zM240 306h8v8h-8zM248 306h8v8h-8zM288 306h8v8h-8zM304 306h8v8h-8zM320 306h8v8h-8zM328 306h8v8h-8zM336 306h8v8h-8zM32 314h8v8h-8zM40 314h8v8h-8zM48 314h8v8h-8zM64 314h8v8h-8zM80 314h8v8h-8zM112 314h8v8h-8zM136 314h8v8h-8zM144 314h8v8h-8zM168 314h8v8h-8zM176 314h8v8h-8zM184 314h8v8h-8zM200 314h8v8h-8zM216 314h8v8h-8zM240 314h8v8h-8zM248 314h8v8h-8zM256 314h8v8h-8zM280 314h8v8h-8zM288 314h8v8h-8zM296 314h8v8h-8zM312 314h8v8h-8zM352 314h8v8h-8zM32 322h8v8h-8zM40 322h8v8h-8zM56 322h8v8h-8zM88 322h8v8h-8zM104 322h8v8h-8zM136 322h8v8h-8zM184 322h8v8h-8zM192 322h8v8h-8zM208 322h8v8h-8zM224 322h8v8h-8zM232 322h8v8h-8zM248 322h8v8h-8zM256 322h8v8h-8zM288 322h8v8h-8zM304 322h8v8h-8zM320 322h8v8h-8zM336 322h8v8h-8zM344 322h8v8h-8zM352 322h8v8h-8zM32 330h8v8h-8zM40 330h8v8h-8zM56 330h8v8h-8zM80 330h8v8h-8zM96 330h8v8h-8zM120 330h8v8h-8zM128 330h8v8h-8zM144 330h8v8h-8zM160 330h8v8h-8zM168 330h8v8h-8zM184 330h8v8h-8zM216 330h8v8h-8zM224 330h8v8h-8zM240 330h8v8h-8zM256 330h8v8h-8zM264 330h8v8h-8zM272 330h8v8h-8zM288 330h8v8h-8zM296 330h8v8h-8zM304 330h8v8h-8zM312 330h8v8h-8zM320 330h8v8h-8zM336 330h8v8h-8zM96 338h8v8h-8zM104 338h8v8h-8zM112 338h8v8h-8zM120 338h8v8h-8zM128 338h8v8h-8zM144 338h8v8h-8zM176 338h8v8h-8zM184 338h8v8h-8zM200 338h8v8h-8zM208 338h8v8h-8zM216 338h8v8h-8zM232 338h8v8h-8zM264 338h8v8h-8zM272 338h8v8h-8zM280 338h8v8h-8zM288 338h8v8h-8zM320 338h8v8h-8zM336 338h8v8h-8zM344 338h8v8h-8zM32 346h8v8h-8zM40 346h8v8h-8zM48 346h8v8h-8zM56 346h8v8h-8zM64 346h8v8h-8zM72 346h8v8h-8zM80 346h8v8h-8zM96 346h8v8h-8zM128 346h8v8h-8zM160 346h8v8h-8zM168 346h8v8h-8zM176 346h8v8h-8zM208 346h8v8h-8zM216 346h8v8h-8zM224 346h8v8h-8zM232 346h8v8h-8zM248 346h8v8h-8zM256 346h8v8h-8zM280 346h8v8h-8zM288 346h8v8h-8zM304 346h8v8h-8zM320 346h8v8h-8zM328 346h8v8h-8zM344 346h8v8h-8zM32 354h8v8h-8zM80 354h8v8h-8zM96 354h8v8h-8zM104 354h8v8h-8zM120 354h8v8h-8zM136 354h8v8h-8zM144 354h8v8h-8zM168 354h8v8h-8zM184 354h8v8h-8zM200 354h8v8h-8zM208 354h8v8h-8zM216 354h8v8h-8zM248 354h8v8h-8zM264 354h8v8h-8zM280 354h8v8h-8zM288 354h8v8h-8zM320 354h8v8h-8zM328 354h8v8h-8zM344 354h8v8h-8zM32 362h8v8h-8zM48 362h8v8h-8zM56 362h8v8h-8zM64 362h8v8h-8zM80 362h8v8h-8zM96 362h8v8h-8zM112 362h8v8h-8zM120 362h8v8h-8zM128 362h8v8h-8zM160 362h8v8h-8zM168 362h8v8h-8zM176 362h8v8h-8zM184 362h8v8h-8zM192 362h8v8h-8zM200 362h8v8h-8zM216 362h8v8h-8zM224 362h8v8h-8zM256 362h8v8h-8zM280 362h8v8h-8zM288 362h8v8h-8zM296 362h8v8h-8zM304 362h8v8h-8zM312 362h8v8h-8zM320 362h8v8h-8zM344 362h8v8h-8zM352 362h8v8h-8zM32 370h8v8h-8zM48 370h8v8h-8zM56 370h8v8h-8zM64 370h8v8h-8zM80 370h8v8h-8zM96 370h8v8h-8zM128 370h8v8h-8zM144 370h8v8h-8zM152 370h8v8h-8zM160 370h8v8h-8zM168 370h8v8h-8zM200 370h8v8h-8zM216 370h8v8h-8zM248 370h8v8h-8zM256 370h8v8h-8zM272 370h8v8h-8zM288 370h8v8h-8zM312 370h8v8h-8zM328 370h8v8h-8zM336 370h8v8h-8zM352 370h8v8h-8zM32 378h8v8h-8zM48 378h8v8h-8zM56 378h8v8h-8zM64 378h8v8h-8zM80 378h8v8h-8zM112 378h8v8h-8zM128 378h8v8h-8zM136 378h8v8h-8zM184 378h8v8h-8zM192 378h8v8h-8zM224 378h8v8h-8zM232 378h8v8h-8zM248 378h8v8h-8zM296 378h8v8h-8zM312 378h8v8h-8zM320 378h8v8h-8zM352 378h8v8h-8zM32 386h8v8h-8zM80 386h8v8h-8zM104 386h8v8h-8zM112 386h8v8h-8zM120 386h8v8h-8zM128 386h8v8h-8zM136 386h8v8h-8zM152 386h8v8h-8zM160 386h8v8h-8zM216 386h8v8h-8zM224 386h8v8h-8zM240 386h8v8h-8zM272 386h8v8h-8zM296 386h8v8h-8zM320 386h8v8h-8zM328 386h8v8h-8zM336 386h8v8h-8zM352 386h8v8h-8zM32 394h8v8h-8zM40 394h8v8h-8zM48 394h8v8h-8zM56 394h8v8h-8zM64 394h8v8h-8zM72 394h8v8h-8zM80 394h8v8h-8zM96 394h8v8h-8zM112 394h8v8h-8zM144 394h8v8h-8zM152 394h8v8h-8zM160 394h8v8h-8zM176 394h8v8h-8zM192 394h8v8h-8zM208 394h8v8h-8zM216 394h8v8h-8zM224 394h8v8h-8zM232 394h8v8h-8zM240 394h8v8h-8zM248 394h8v8h-8zM272 394h8v8h-8zM280 394h8v8h-8zM288 394h8v8h-8zM296 394h8v8h-8zM304 394h8v8h-8zM320 394h8v8h-8z" fill="#000" shape-rendering="crispEdges"/></svg>